<?xml version="1.0" standalone="no"?><!DOCTYPE svg PUBLIC "-//W3C//DTD SVG 1.1//EN" "http://www.w3.org/Graphics/SVG/1.1/DTD/svg11.dtd"><svg t="1761967796269" class="icon" viewBox="0 0 1024 1024" version="1.1" xmlns="http://www.w3.org/2000/svg" p-id="5548" xmlns:xlink="http://www.w3.org/1999/xlink" width="200" height="200"><path d="M494.210734 950.707522H138.6634a33.919555 33.919555 0 0 1-35.551533-36.479521V365.755199h782.197733v109.75856a35.583533 35.583533 0 1 0 71.135067 0V164.477841a89.11883 89.11883 0 0 0-88.894833-91.198803h-124.446367V36.479521a35.551533 35.551533 0 1 0-71.103067 0v36.799517H316.453067V36.479521a35.583533 35.583533 0 1 0-71.135067 0v36.799517H120.903633A89.11883 89.11883 0 0 0 32.0088 164.477841v767.98992A89.374827 89.374827 0 0 0 120.903633 1023.98656h373.307101a36.671519 36.671519 0 0 0 0-73.279038z m-391.098867-767.98992a34.079553 34.079553 0 0 1 35.551533-36.479521h106.6546v73.279038a35.583533 35.583533 0 1 0 71.135067 0V146.238081H672.0004v73.279038a35.551533 35.551533 0 1 0 71.103067 0V146.238081h106.6546a34.079553 34.079553 0 0 1 35.551533 36.479521v109.758559H103.111867V182.717602z m337.755567 402.554716H192.0067A36.671519 36.671519 0 0 1 192.0067 511.99328h248.860734a36.639519 36.639519 0 0 1 0 73.279038zM352.0046 804.469441H209.766467a36.479521 36.479521 0 0 1 0-72.959042H352.0046a36.479521 36.479521 0 0 1 0 72.959042z m483.545654 22.079711l-74.655021-80.638942v-113.278513a35.583533 35.583533 0 1 0-71.135066 0v127.99832a33.791556 33.791556 0 0 0 10.68786 25.599664l88.862833 91.518799a33.599559 33.599559 0 0 0 49.791347 0 40.191472 40.191472 0 0 0-3.551953-51.199328z m39.103486-303.676015a257.756617 257.756617 0 0 0-53.3433-29.119618l-31.99958 65.919135c10.68786 3.519954 21.34372 10.879857 31.99958 14.399811l53.3433-51.199328z m92.446787 113.598509A358.907289 358.907289 0 0 0 927.99704 574.072465l-56.895253 43.839425a155.485959 155.485959 0 0 1 31.99958 51.199328l63.99916-32.639572zM991.9962 760.630017v-10.879857a242.780814 242.780814 0 0 0-10.68786-73.279039l-67.551113 29.439614a185.597564 185.597564 0 0 1 7.103907 43.839425l71.135066 10.879857z m-39.135486 127.99832a329.755672 329.755672 0 0 0 28.447626-62.079185l-67.551113-22.079711A158.237923 158.237923 0 0 1 895.99746 848.308866l56.863254 40.319471z m-85.31088 0a198.589394 198.589394 0 1 1-142.238134-340.155536 49.183354 49.183354 0 0 1 24.895674 3.83995L767.99914 482.873662a87.550851 87.550851 0 0 0-42.68744-7.359903 274.332399 274.332399 0 0 0 0 548.472801 250.748709 250.748709 0 0 0 199.133387-95.038752l-56.895253-40.319471z" fill="#ffffff" p-id="5549"></path></svg>